<svg width="24" height="24" viewBox="0 0 24 24" fill="none" xmlns="http://www.w3.org/2000/svg">
<path d="M12 24C5.38293 24 0 18.6171 0 12C0 5.38293 5.38293 0 12 0C18.6171 0 24 5.38293 24 12C24 18.6171 18.6171 24 12 24ZM12 1.5C6.21002 1.5 1.5 6.21002 1.5 12C1.5 17.79 6.21002 22.5 12 22.5C17.79 22.5 22.5 17.79 22.5 12C22.5 6.21002 17.79 1.5 12 1.5Z" fill="url(#paint0_linear)"/>
<path d="M17.25 12.75H6.75C6.336 12.75 6 12.414 6 12C6 11.586 6.336 11.25 6.75 11.25H17.25C17.664 11.25 18 11.586 18 12C18 12.414 17.664 12.75 17.25 12.75Z" fill="url(#paint1_linear)"/>
<defs>
<linearGradient id="paint0_linear" x1="12" y1="0" x2="12" y2="24" gradientUnits="userSpaceOnUse">
<stop stop-color="#DC0E0E"/>
<stop offset="1" stop-color="#790E0E"/>
</linearGradient>
<linearGradient id="paint1_linear" x1="12" y1="11.25" x2="12" y2="12.75" gradientUnits="userSpaceOnUse">
<stop stop-color="#DC0E0E"/>
<stop offset="1" stop-color="#790E0E"/>
</linearGradient>
</defs>
</svg>
